<svg width="90" height="21" viewBox="0 0 100 23" version="1.1" xmlns="http://www.w3.org/2000/svg" xmlns:xlink="http://www.w3.org/1999/xlink">
<title>logo_letsrock</title>
<desc>Created using Figma</desc>
<g id="Canvas" transform="translate(-1111 -3661)">
<g id="logo_letsrock">
<g id="Fill 1">
<use xlink:href="#path0_fill" transform="translate(1111 3661.17)" fill="#FFFFFF"/>
</g>
<g id="Fill 4">
<use xlink:href="#path1_fill" transform="translate(1168.78 3666.13)" fill="#FFFFFF"/>
</g>
<g id="Fill 6">
<use xlink:href="#path2_fill" transform="translate(1199.44 3666.14)" fill="#FFFFFF"/>
</g>
<g id="Fill 9">
<use xlink:href="#path3_fill" transform="translate(1135.39 3666.14)" fill="#FFFFFF"/>
</g>
<g id="Fill 11">
<use xlink:href="#path4_fill" transform="translate(1180.17 3671.91)" fill="#FFFFFF"/>
</g>
<g id="Fill 13">
<use xlink:href="#path5_fill" transform="translate(1145.26 3671.91)" fill="#FFFFFF"/>
</g>
<g id="Fill 15">
<use xlink:href="#path6_fill" transform="translate(1160.09 3671.31)" fill="#FFFFFF"/>
</g>
<g id="Fill 17">
<use xlink:href="#path7_fill" transform="translate(1190.72 3671.31)" fill="#FFFFFF"/>
</g>
<g id="Fill 19">
<use xlink:href="#path8_fill" transform="translate(1154.82 3668.75)" fill="#FFFFFF"/>
</g>
<g id="Fill 21">
<use xlink:href="#path9_fill" transform="translate(1123.94 3669.01)" fill="#FFFFFF"/>
</g>
<g id="Fill 23">
<use xlink:href="#path10_fill" transform="translate(1126.38 3670.28)" fill="#FFFFFF"/>
</g>
<g id="Fill 25">
<use xlink:href="#path11_fill" transform="translate(1161.66 3666.14)" fill="#FFFFFF"/>
</g>
</g>
</g>
<defs>
<path id="path0_fill" fill-rule="evenodd" d="M 20.1953 17.4332C 21.2715 13.9788 22.2924 11.676 23.3962 8.36214C 23.7825 7.21081 24.1136 6.5648 24.0032 5.91897C 23.8102 4.8518 23.1202 4.57097 22.4305 5.46946C 22.3201 5.63814 22.2097 5.77847 22.1268 5.94697C 21.713 6.64914 21.3542 7.37931 20.8852 8.22181C 19.4501 10.7493 18.3741 14.0632 17.6289 15.1865C 16.6632 16.7592 15.311 16.4502 14.8972 14.8775C 13.7935 15.692 12.4689 14.8215 12.5241 13.3892C 12.5516 12.1253 12.8828 10.4965 13.0483 9.20465C 13.2691 7.60398 13.7106 3.5318 13.6831 1.34129C 13.6554 1.06045 13.6279 0.863784 13.5727 0.667287C 13.3243 -0.0910522 12.5793 -0.175215 11.9446 0.274119C 11.5859 0.526783 11.2823 1.06045 11.1167 1.76245C 10.8408 2.77346 10.7581 3.8688 10.6201 4.96414C 10.5374 5.69431 9.35073 12.2097 9.07479 12.7432C 8.21929 14.5125 5.21163 11.5357 2.97643 10.8617C 0.520651 10.1595 -1.02461 11.4513 0.796591 12.5747C 2.01073 13.333 6.06696 16.5627 7.06034 17.6578C 7.30878 17.9107 7.36396 17.9387 7.61222 18.1633C 7.97103 18.5285 8.19178 18.8655 8.5781 19.2025C 10.8408 21.3087 14.8143 22.2917 17.8222 20.719C 18.4292 20.382 18.5671 20.2415 19.0086 19.7922C 19.7261 19.034 19.8916 18.388 20.1953 17.4332Z"/>
<path id="path1_fill" fill-rule="evenodd" d="M 0 16.5257L 3.25609 16.5257L 4.60828 10.1506C 6.40181 9.92598 6.457 11.1898 6.73294 12.5658L 7.45038 16.5257L 10.7618 16.5257L 9.96152 12.4817C 9.76828 11.4986 9.32677 10.6843 8.96814 10.2911C 8.74739 10.0665 8.55414 9.95415 8.30588 9.75748C 8.83008 9.42048 9.24408 9.28014 9.6579 9.02731C 10.3202 8.63414 10.9549 8.07247 11.5897 6.94913C 12.3623 5.57296 12.7486 3.46679 11.976 1.92212C 11.2033 0.321447 9.93384 0.0124429 7.67113 0.0124429C 5.60167 0.0124429 3.55971 -0.0155536 1.49008 0.0124429L 0.993384 2.62429L 2.7594 2.62429L 0 16.5257ZM 5.16016 7.53876L 6.15354 2.65225C 7.58843 2.59608 9.96151 2.23108 8.91294 5.43259C 8.16782 7.70744 6.76061 7.56693 5.16016 7.53876Z"/>
<path id="path2_fill" fill-rule="evenodd" d="M 0 16.5132L 2.89746 16.5132L 3.91835 11.8794C 5.16016 11.767 5.27054 12.441 5.54648 13.789L 6.07068 16.5132L 9.07851 16.4851L 8.66452 14.4069C 8.22301 12.441 8.38858 12.076 7.25731 10.8404L 10.679 5.78518L 7.58844 5.81335C 6.8158 6.88052 6.12587 8.20053 5.4361 9.2957L 4.47023 9.2957C 4.41504 8.36903 6.07068 1.82551 6.31911 0L 1.51776 0L 1.04857 2.61184L 2.78708 2.61184C 2.51114 4.83035 0.0275086 15.3899 0 16.5132Z"/>
<path id="path3_fill" fill-rule="evenodd" d="M 9.2164 12.2164L 6.51219 12.2164L 6.15338 13.8732L 3.97354 13.8732L 6.81563 0L 1.60045 0.0561668L 0.993384 2.61184L 2.89728 2.61184L 0 16.5132L 8.33339 16.4851"/>
<path id="path4_fill" fill-rule="evenodd" d="M 2.40447 10.9932C 2.6529 11.1055 2.95635 11.1617 3.34267 11.2179C 6.01937 11.4987 7.37498 10.483 8.2028 9.38766C 8.94775 8.40482 9.1926 7.65118 9.49621 6.44368C 9.93772 4.81484 10.186 2.93317 9.16509 1.52899C 8.08883 0.0406601 5.90899 -0.436845 3.83936 0.433828C 2.21123 1.13583 1.02477 2.54 0.417702 4.44967C 0.114082 5.43268 -0.0789905 6.58401 0.0313855 7.67935C 0.16927 9.25202 0.914394 10.4315 2.40447 10.9932ZM 3.3151 7.4548C 3.12186 6.78079 3.23223 6.02246 3.48067 5.03962C 3.75661 3.97245 4.52924 2.20311 5.82607 2.65245C 6.84713 2.96145 6.90232 6.05063 5.82607 7.65129C 4.99825 8.91513 3.72893 9.11163 3.3151 7.4548Z"/>
<path id="path5_fill" fill-rule="evenodd" d="M 1.02694 10.1203C 2.77194 12.2571 6.1871 10.7943 7.70468 10.2606L 7.20799 8.01396C 5.85597 8.49147 3.8692 9.50247 3.34483 7.4243C 5.58003 7.62079 7.53912 6.89063 8.64288 4.92479C 11.4023 -0.0178952 4.53146 -1.78706 1.57882 2.17261C 0.557752 3.54879 0.0335516 5.00912 0.0058722 6.9188C 0.0058722 6.9188 -0.140385 8.69092 1.02694 10.1203ZM 3.42773 5.3179C 3.5933 4.16657 4.14518 2.87473 5.16607 2.65006C 5.99389 2.48156 6.30452 3.07888 6.13195 3.80139C 6.05694 4.11527 5.9387 4.41923 5.66276 4.70006C 5.16607 5.20557 4.36593 5.34607 3.42773 5.3179Z"/>
<path id="path6_fill" fill-rule="evenodd" d="M 1.43489 5.19552C 1.88323 6.97043 4.41504 7.21753 4.71866 8.03203C 5.29805 9.52036 2.59384 9.71704 1.04857 8.4532L 0 10.6999C 0.800141 11.739 3.28377 12.0199 4.85654 11.6829C 6.76062 11.2897 7.8367 9.71704 7.91956 7.80736C 7.97475 6.93669 7.78151 6.48736 7.03656 5.78536C 6.3743 5.19552 5.60167 5.02702 4.9946 4.60568C 4.66347 4.38101 4.5531 4.32485 4.58061 3.90368C 4.63579 3.14534 5.24286 3.17351 6.15355 3.20151L 5.96031 4.35302L 8.08513 4.32485L 9.46483 0L 6.87099 0.0281704L 6.73294 0.674002C 5.4361 0.589839 3.92279 0.548105 2.89746 1.37617C 2.89746 1.37617 0.887109 3.02675 1.43489 5.19552Z"/>
<path id="path7_fill" fill-rule="evenodd" d="M 1.2102 10.9807C 1.48614 11.2334 1.90014 11.4862 2.50721 11.6547C 3.19697 11.8794 3.99728 11.9074 4.76992 11.795C 5.26661 11.739 5.62524 11.6265 5.95637 11.5424C 6.37037 11.43 6.7015 11.2895 7.11532 11.121C 7.28088 11.0369 7.47413 10.9807 7.6672 10.8684L 7.17051 8.64969C 6.23231 8.9587 2.86584 10.6999 3.22465 6.74002C 3.4454 4.46535 4.13517 2.94867 6.61863 3.25768L 6.42556 4.35302L 8.5227 4.32485L 9.92991 0L 7.36375 0L 7.17051 0.758339C 4.21804 0.449335 2.61758 1.29184 1.37577 3.00501C 0.354704 4.38101 -0.114308 6.34685 0.0235761 8.34086C 0.106444 9.3237 0.437572 10.3067 1.2102 10.9807Z"/>
<path id="path8_fill" fill-rule="evenodd" d="M 0 13.9014L 2.84227 13.9014L 4.52542 5.72902L 6.12587 5.75719L 6.92618 3.22951L 5.0773 3.22951L 5.71204 0L 3.1734 0L 2.2352 3.22951L 0.717444 3.22951L 0.220752 5.72902L 1.51776 5.72902L 0 13.9014Z"/>
<path id="path9_fill" fill-rule="evenodd" d="M 2.06264 5.78207C 2.61452 4.5744 3.00084 2.80523 3.13889 1.70989C 3.27678 0.642717 2.97333 0.193383 1.8694 0.024882C 1.56595 -0.0312848 1.26233 -0.00311443 0.986389 0.221553C 0.572564 0.530384 0.627752 1.09205 0.462188 2.01889C 0.186248 3.92856 -0.393312 5.97874 0.407 6.65257C 1.26233 7.35474 1.75902 6.48407 2.06264 5.78207Z"/>
<path id="path10_fill" fill-rule="evenodd" d="M 1.94941 5.63209C 2.83242 4.14375 3.93618 1.53191 3.3843 0.661237C 2.91528 -0.0407611 1.61828 -0.405932 1.23196 0.717404C 0.928345 1.58808 0.652405 2.93608 0.431653 3.69425C 0.183393 4.50875 -0.202923 5.60392 0.128205 6.16559C 0.707593 7.17676 1.56309 6.24992 1.94941 5.63209Z"/>
<path id="path11_fill" fill-rule="evenodd" d="M 0 4.32485L 2.06964 4.32485L 3.55971 0L 0.883008 0L 0 4.32485Z"/>
</defs>
</svg>
