<?xml version="1.0" encoding="UTF-8" ?>
<!DOCTYPE svg PUBLIC "-//W3C//DTD SVG 1.1//EN" "http://www.w3.org/Graphics/SVG/1.1/DTD/svg11.dtd">
<svg width="26px" height="26px" viewBox="0 0 260 260" version="1.1" xmlns="http://www.w3.org/2000/svg">
<g id="#41d3ffff">
<path fill="#41d3ff" opacity="1.00" d=" M 64.71 23.70 C 89.91 7.13 121.23 0.31 151.06 4.56 C 181.30 8.61 209.70 24.30 229.50 47.46 C 247.76 68.52 258.43 95.76 260.00 123.55 L 260.00 135.59 C 258.66 165.10 246.78 194.02 226.67 215.69 C 206.87 237.36 179.32 251.82 150.17 255.55 C 120.83 259.51 90.15 252.77 65.29 236.66 C 41.26 221.30 22.70 197.62 13.61 170.58 C 4.60 143.98 4.79 114.38 14.14 87.90 C 23.32 61.71 41.39 38.75 64.71 23.70 M 86.88 76.87 C 74.88 87.02 67.36 102.32 66.97 118.06 C 66.36 131.54 70.86 145.14 79.32 155.65 C 89.70 168.79 106.17 176.96 122.96 176.95 C 134.23 177.24 145.41 173.75 154.87 167.71 C 163.24 176.13 171.64 184.50 180.02 192.90 C 182.75 195.80 187.00 197.22 190.90 196.33 C 199.78 194.93 203.15 182.50 196.47 176.64 C 188.06 168.17 179.55 159.80 171.19 151.29 C 183.70 132.70 183.51 106.69 170.72 88.29 C 162.15 75.54 148.21 66.51 133.03 64.08 C 116.76 61.25 99.37 66.07 86.88 76.87 Z" />
<path fill="#41d3ff" opacity="1.00" d=" M 116.13 84.28 C 131.17 80.90 147.66 88.28 155.27 101.65 C 160.95 111.31 161.89 123.63 157.53 133.98 C 152.80 145.88 141.35 154.83 128.62 156.41 C 113.39 158.76 97.44 150.15 90.81 136.30 C 86.34 127.24 85.86 116.32 89.54 106.92 C 93.82 95.53 104.21 86.70 116.13 84.28 Z" />
</g>
<g id="#ffffffff">
<path fill="#ffffff" opacity="1.00" d=" M 86.88 76.87 C 99.37 66.07 116.76 61.25 133.03 64.08 C 148.21 66.51 162.15 75.54 170.72 88.29 C 183.51 106.69 183.70 132.70 171.19 151.29 C 179.55 159.80 188.06 168.17 196.47 176.64 C 203.15 182.50 199.78 194.93 190.90 196.33 C 187.00 197.22 182.75 195.80 180.02 192.90 C 171.64 184.50 163.24 176.13 154.87 167.71 C 145.41 173.75 134.23 177.24 122.96 176.95 C 106.17 176.96 89.70 168.79 79.32 155.65 C 70.86 145.14 66.36 131.54 66.97 118.06 C 67.36 102.32 74.88 87.02 86.88 76.87 M 116.13 84.28 C 104.21 86.70 93.82 95.53 89.54 106.92 C 85.86 116.32 86.34 127.24 90.81 136.30 C 97.44 150.15 113.39 158.76 128.62 156.41 C 141.35 154.83 152.80 145.88 157.53 133.98 C 161.89 123.63 160.95 111.31 155.27 101.65 C 147.66 88.28 131.17 80.90 116.13 84.28 Z" />
</g>
</svg>
