<?xml version="1.0" encoding="UTF-8" ?>
<!DOCTYPE svg PUBLIC "-//W3C//DTD SVG 1.1//EN" "http://www.w3.org/Graphics/SVG/1.1/DTD/svg11.dtd">
<svg width="20px" height="20px" viewBox="0 0 200 200" version="1.1" xmlns="http://www.w3.org/2000/svg">
<g id="#41d3ffff">
<path fill="#41d3ff" opacity="1.00" d=" M 94.59 0.00 L 105.21 0.00 C 129.43 1.25 153.05 11.59 170.25 28.71 C 187.96 45.99 198.70 70.03 200.00 94.72 L 200.00 105.13 C 198.83 127.23 190.20 148.87 175.60 165.54 C 158.05 186.02 131.94 198.59 105.05 200.00 L 95.29 200.00 C 71.86 198.81 48.92 189.30 31.83 173.19 C 12.88 155.75 1.38 130.76 0.00 105.08 L 0.00 95.56 C 1.09 71.07 11.44 47.13 28.75 29.75 C 45.99 12.08 69.96 1.34 94.59 0.00 M 76.97 11.19 C 55.67 16.66 36.60 30.16 24.25 48.34 C 12.17 65.87 6.60 87.72 8.73 108.90 C 10.42 127.24 18.05 144.85 29.80 158.99 C 44.66 153.12 59.76 147.85 74.98 143.01 C 75.32 137.55 75.53 131.77 73.24 126.67 C 71.47 122.63 70.11 118.41 69.33 114.07 C 68.98 110.65 65.99 108.35 65.05 105.10 C 62.45 97.73 59.92 89.40 62.77 81.73 C 64.04 72.07 59.51 62.46 61.87 52.86 C 63.78 43.69 69.41 35.24 77.55 30.46 C 86.64 24.80 97.80 24.21 108.18 25.17 C 117.13 26.23 125.98 30.12 131.97 36.99 C 137.44 43.31 140.55 51.65 140.56 60.00 C 139.98 67.28 138.10 74.61 138.97 81.93 C 141.32 88.09 139.74 94.77 138.08 100.90 C 137.04 104.83 135.17 108.46 132.89 111.80 C 131.79 116.83 130.65 121.90 128.46 126.59 C 125.91 131.57 124.47 137.15 125.32 142.77 C 140.44 147.83 155.73 152.51 170.51 158.56 C 190.16 135.43 196.83 102.20 187.77 73.24 C 180.53 49.25 162.96 28.65 140.45 17.66 C 120.98 7.98 98.00 5.68 76.97 11.19 Z" />
</g>
</svg>
